<svg width="28" height="28" viewBox="0 0 28 28" fill="none" xmlns="http://www.w3.org/2000/svg">
<path d="M4.16667 24C3.83611 24 3.55922 23.888 3.336 23.664C3.11278 23.44 3.00078 23.1631 3 22.8333V20.0042C3 19.6931 3.05833 19.3963 3.175 19.114C3.29167 18.8317 3.45694 18.5839 3.67083 18.3708L18.4 3.67083C18.6333 3.45694 18.8912 3.29167 19.1735 3.175C19.4558 3.05833 19.7522 3 20.0625 3C20.3728 3 20.6742 3.05833 20.9667 3.175C21.2591 3.29167 21.5119 3.46667 21.725 3.7L23.3292 5.33333C23.5625 5.54722 23.7324 5.8 23.839 6.09167C23.9456 6.38333 23.9992 6.675 24 6.96667C24 7.27778 23.9463 7.5745 23.839 7.85683C23.7317 8.13917 23.5617 8.39661 23.3292 8.62917L8.62917 23.3292C8.41528 23.5431 8.16717 23.7083 7.88483 23.825C7.6025 23.9417 7.30617 24 6.99583 24H4.16667ZM20.0333 8.6L21.6667 6.96667L20.0333 5.33333L18.4 6.96667L20.0333 8.6Z" fill="#FFCD29"/>
</svg>
