<svg width="24" height="24" viewBox="0 0 24 24" fill="none" xmlns="http://www.w3.org/2000/svg">
<path d="M13.7143 10.2857V1.71429C13.7143 1.25963 13.5337 0.823594 13.2122 0.502103C12.8907 0.180612 12.4547 0 12 0C11.5453 0 11.1093 0.180612 10.7878 0.502103C10.4663 0.823594 10.2857 1.25963 10.2857 1.71429V10.2857H1.71429C1.25963 10.2857 0.823594 10.4663 0.502103 10.7878C0.180612 11.1093 0 11.5453 0 12C0 12.4547 0.180612 12.8907 0.502103 13.2122C0.823594 13.5337 1.25963 13.7143 1.71429 13.7143H10.2857V22.2857C10.2857 22.7404 10.4663 23.1764 10.7878 23.4979C11.1093 23.8194 11.5453 24 12 24C12.4547 24 12.8907 23.8194 13.2122 23.4979C13.5337 23.1764 13.7143 22.7404 13.7143 22.2857V13.7143H22.2857C22.7404 13.7143 23.1764 13.5337 23.4979 13.2122C23.8194 12.8907 24 12.4547 24 12C24 11.5453 23.8194 11.1093 23.4979 10.7878C23.1764 10.4663 22.7404 10.2857 22.2857 10.2857H13.7143Z" fill="#FEFEFE"/>
</svg>